<svg width="88" height="66" viewBox="0 0 88 66" fill="none" xmlns="http://www.w3.org/2000/svg">
<path d="M67.1711 32.032H58.7871L57.4431 36H51.7151L59.8431 13.536H66.1791L74.3071 36H68.5151L67.1711 32.032ZM65.7631 27.808L62.9791 19.584L60.2271 27.808H65.7631Z" fill="white" fill-opacity="0.28"/>
<rect x="38.5" y="0.5" width="49" height="49" rx="9.5" stroke="white" stroke-opacity="0.28"/>
<path d="M30.0371 40.48C31.3385 40.7573 32.3838 41.408 33.1731 42.432C33.9625 43.4347 34.3571 44.5867 34.3571 45.888C34.3571 47.7653 33.6958 49.2587 32.3731 50.368C31.0718 51.456 29.2478 52 26.9011 52H16.4371V29.536H26.5491C28.8318 29.536 30.6131 30.0587 31.8931 31.104C33.1945 32.1493 33.8451 33.568 33.8451 35.36C33.8451 36.6827 33.4931 37.7813 32.7891 38.656C32.1065 39.5307 31.1891 40.1387 30.0371 40.48ZM21.9091 38.624H25.4931C26.3891 38.624 27.0718 38.432 27.5411 38.048C28.0318 37.6427 28.2771 37.056 28.2771 36.288C28.2771 35.52 28.0318 34.9333 27.5411 34.528C27.0718 34.1227 26.3891 33.92 25.4931 33.92H21.9091V38.624ZM25.9411 47.584C26.8585 47.584 27.5625 47.3813 28.0531 46.976C28.5651 46.5493 28.8211 45.9413 28.8211 45.152C28.8211 44.3627 28.5545 43.744 28.0211 43.296C27.5091 42.848 26.7945 42.624 25.8771 42.624H21.9091V47.584H25.9411Z" fill="white" fill-opacity="0.28"/>
<rect x="0.5" y="16.5" width="49" height="49" rx="9.5" stroke="white" stroke-opacity="0.28"/>
</svg>
