<svg width="185" height="85" viewBox="0 0 185 85" fill="none" xmlns="http://www.w3.org/2000/svg">
<path d="M119.079 0.506349C118.807 0.462501 118.55 0.64797 118.506 0.920605L117.792 5.36351C117.748 5.63614 117.933 5.89271 118.206 5.93656C118.479 5.98041 118.735 5.79494 118.779 5.52231L119.414 1.57306L123.364 2.20826C123.636 2.2521 123.893 2.06664 123.937 1.794C123.98 1.52136 123.795 1.26479 123.522 1.22094L119.079 0.506349ZM179.405 83.7071L178.828 82.909L178.018 83.4948L178.595 84.2929L179.405 83.7071ZM177.674 81.3128L176.521 79.7167L175.71 80.3025L176.864 81.8987L177.674 81.3128ZM175.367 78.1205L174.213 76.5244L173.402 77.1102L174.556 78.7064L175.367 78.1205ZM173.059 74.9282L171.905 73.3321L171.095 73.9179L172.249 75.5141L173.059 74.9282ZM170.751 71.7359L169.598 70.1398L168.787 70.7256L169.941 72.3218L170.751 71.7359ZM168.444 68.5436L167.29 66.9475L166.479 67.5333L167.633 69.1295L168.444 68.5436ZM166.136 65.3513L164.982 63.7552L164.172 64.341L165.326 65.9372L166.136 65.3513ZM163.828 62.159L162.674 60.5629L161.864 61.1487L163.018 62.7449L163.828 62.159ZM161.521 58.9667L160.367 57.3705L159.556 57.9564L160.71 59.5525L161.521 58.9667ZM159.213 55.7744L158.059 54.1782L157.249 54.7641L158.402 56.3602L159.213 55.7744ZM156.905 52.5821L155.751 50.9859L154.941 51.5718L156.095 53.1679L156.905 52.5821ZM154.598 49.3898L153.444 47.7936L152.633 48.3795L153.787 49.9756L154.598 49.3898ZM152.29 46.1975L151.136 44.6013L150.326 45.1872L151.479 46.7833L152.29 46.1975ZM149.982 43.0052L148.828 41.409L148.018 41.9948L149.172 43.591L149.982 43.0052ZM147.674 39.8128L146.521 38.2167L145.71 38.8025L146.864 40.3987L147.674 39.8128ZM145.367 36.6205L144.213 35.0244L143.402 35.6102L144.556 37.2064L145.367 36.6205ZM143.059 33.4282L141.905 31.8321L141.095 32.4179L142.249 34.0141L143.059 33.4282ZM140.751 30.2359L139.598 28.6398L138.787 29.2256L139.941 30.8218L140.751 30.2359ZM138.444 27.0436L137.29 25.4475L136.479 26.0333L137.633 27.6295L138.444 27.0436ZM136.136 23.8513L134.982 22.2551L134.172 22.841L135.326 24.4371L136.136 23.8513ZM133.828 20.659L132.674 19.0628L131.864 19.6487L133.018 21.2448L133.828 20.659ZM131.521 17.4667L130.367 15.8705L129.556 16.4564L130.71 18.0525L131.521 17.4667ZM129.213 14.2744L128.059 12.6782L127.249 13.2641L128.402 14.8602L129.213 14.2744ZM126.905 11.0821L125.751 9.48591L124.941 10.0718L126.095 11.6679L126.905 11.0821ZM124.598 7.88976L123.444 6.2936L122.633 6.87945L123.787 8.4756L124.598 7.88976ZM122.29 4.69745L121.136 3.10129L120.326 3.68714L121.479 5.28329L122.29 4.69745ZM119.982 1.50514L119.405 0.707081L118.595 1.29293L119.172 2.09098L119.982 1.50514ZM119.159 0.0126932C118.614 -0.0750099 118.1 0.295928 118.013 0.841206L116.584 9.72701C116.496 10.2723 116.867 10.7854 117.412 10.8731C117.957 10.9608 118.47 10.5899 118.558 10.0446L119.829 2.14612L127.727 3.4165C128.272 3.5042 128.785 3.13327 128.873 2.58799C128.961 2.04271 128.59 1.52958 128.045 1.44188L119.159 0.0126932ZM179.81 83.4142L179.233 82.6161L177.613 83.7878L178.19 84.5858L179.81 83.4142ZM178.08 81.0199L176.926 79.4238L175.305 80.5955L176.459 82.1916L178.08 81.0199ZM175.772 77.8276L174.618 76.2315L172.997 77.4032L174.151 78.9993L175.772 77.8276ZM173.464 74.6353L172.31 73.0392L170.69 74.2108L171.843 75.807L173.464 74.6353ZM171.157 71.443L170.003 69.8468L168.382 71.0185L169.536 72.6147L171.157 71.443ZM168.849 68.2507L167.695 66.6545L166.074 67.8262L167.228 69.4224L168.849 68.2507ZM166.541 65.0584L165.387 63.4622L163.767 64.6339L164.92 66.2301L166.541 65.0584ZM164.234 61.8661L163.08 60.2699L161.459 61.4416L162.613 63.0378L164.234 61.8661ZM161.926 58.6738L160.772 57.0776L159.151 58.2493L160.305 59.8455L161.926 58.6738ZM159.618 55.4815L158.464 53.8853L156.843 55.057L157.997 56.6532L159.618 55.4815ZM157.31 52.2892L156.157 50.693L154.536 51.8647L155.69 53.4609L157.31 52.2892ZM155.003 49.0968L153.849 47.5007L152.228 48.6724L153.382 50.2685L155.003 49.0968ZM152.695 45.9045L151.541 44.3084L149.92 45.4801L151.074 47.0762L152.695 45.9045ZM150.387 42.7122L149.233 41.1161L147.613 42.2878L148.767 43.8839L150.387 42.7122ZM148.08 39.5199L146.926 37.9238L145.305 39.0955L146.459 40.6916L148.08 39.5199ZM145.772 36.3276L144.618 34.7315L142.997 35.9032L144.151 37.4993L145.772 36.3276ZM143.464 33.1353L142.31 31.5392L140.69 32.7108L141.843 34.307L143.464 33.1353ZM141.157 29.943L140.003 28.3468L138.382 29.5185L139.536 31.1147L141.157 29.943ZM138.849 26.7507L137.695 25.1545L136.074 26.3262L137.228 27.9224L138.849 26.7507ZM136.541 23.5584L135.387 21.9622L133.766 23.1339L134.92 24.7301L136.541 23.5584ZM134.233 20.3661L133.08 18.7699L131.459 19.9416L132.613 21.5378L134.233 20.3661ZM131.926 17.1738L130.772 15.5776L129.151 16.7493L130.305 18.3455L131.926 17.1738ZM129.618 13.9815L128.464 12.3853L126.843 13.557L127.997 15.1531L129.618 13.9815ZM127.31 10.7891L126.157 9.19299L124.536 10.3647L125.69 11.9608L127.31 10.7891ZM125.003 7.59683L123.849 6.00068L122.228 7.17237L123.382 8.76853L125.003 7.59683ZM122.695 4.40452L121.541 2.80837L119.92 3.98006L121.074 5.57622L122.695 4.40452ZM120.387 1.21221L119.81 0.414158L118.19 1.58585L118.766 2.38391L120.387 1.21221Z" fill="white" fill-opacity="0.28"/>
<path d="M184.464 6.18662C184.567 5.93043 184.443 5.6392 184.187 5.53613L180.012 3.8566C179.756 3.75354 179.464 3.87767 179.361 4.13386C179.258 4.39004 179.382 4.68127 179.639 4.78434L183.35 6.27726L181.857 9.98822C181.754 10.2444 181.878 10.5356 182.134 10.6387C182.39 10.7418 182.681 10.6176 182.784 10.3614L184.464 6.18662ZM1.19605 84.46L2.11105 84.07L1.71895 83.15L0.803951 83.54L1.19605 84.46ZM3.94105 83.29L5.77105 82.51L5.37895 81.59L3.54895 82.37L3.94105 83.29ZM7.60105 81.73L9.43105 80.95L9.03895 80.03L7.20895 80.81L7.60105 81.73ZM11.261 80.17L13.091 79.39L12.699 78.47L10.869 79.25L11.261 80.17ZM14.921 78.61L16.751 77.83L16.359 76.91L14.5289 77.69L14.921 78.61ZM18.581 77.05L20.411 76.27L20.0189 75.35L18.1889 76.13L18.581 77.05ZM22.241 75.49L24.071 74.71L23.6789 73.79L21.8489 74.57L22.241 75.49ZM25.901 73.93L27.731 73.15L27.3389 72.23L25.5089 73.01L25.901 73.93ZM29.561 72.37L31.391 71.59L30.9989 70.67L29.1689 71.45L29.561 72.37ZM33.221 70.81L35.051 70.03L34.6589 69.11L32.8289 69.89L33.221 70.81ZM36.881 69.25L38.711 68.47L38.3189 67.55L36.4889 68.33L36.881 69.25ZM40.541 67.69L42.371 66.91L41.9789 65.99L40.1489 66.77L40.541 67.69ZM44.201 66.13L46.031 65.35L45.6389 64.43L43.8089 65.21L44.201 66.13ZM47.861 64.57L49.691 63.79L49.2989 62.87L47.4689 63.65L47.861 64.57ZM51.521 63.01L53.351 62.23L52.9589 61.31L51.1289 62.09L51.521 63.01ZM55.181 61.45L57.011 60.67L56.6189 59.75L54.7889 60.53L55.181 61.45ZM58.841 59.89L60.671 59.11L60.2789 58.19L58.4489 58.97L58.841 59.89ZM62.501 58.33L64.331 57.55L63.9389 56.63L62.1089 57.41L62.501 58.33ZM66.161 56.77L67.991 55.99L67.5989 55.07L65.7689 55.85L66.161 56.77ZM69.821 55.21L71.651 54.43L71.2589 53.51L69.4289 54.29L69.821 55.21ZM73.481 53.65L75.311 52.87L74.9189 51.95L73.0889 52.73L73.481 53.65ZM77.141 52.09L78.971 51.31L78.5789 50.39L76.7489 51.17L77.141 52.09ZM80.801 50.53L82.631 49.75L82.2389 48.83L80.4089 49.61L80.801 50.53ZM84.461 48.97L86.291 48.19L85.8989 47.27L84.0689 48.05L84.461 48.97ZM88.121 47.41L89.951 46.63L89.5589 45.71L87.7289 46.49L88.121 47.41ZM91.781 45.85L93.611 45.07L93.2189 44.15L91.3889 44.93L91.781 45.85ZM95.441 44.29L97.271 43.51L96.8789 42.59L95.0489 43.37L95.441 44.29ZM99.101 42.73L100.931 41.95L100.539 41.03L98.7089 41.81L99.101 42.73ZM102.761 41.17L104.591 40.39L104.199 39.47L102.369 40.25L102.761 41.17ZM106.421 39.61L108.251 38.83L107.859 37.91L106.029 38.69L106.421 39.61ZM110.081 38.05L111.911 37.27L111.519 36.35L109.689 37.13L110.081 38.05ZM113.741 36.49L115.571 35.71L115.179 34.79L113.349 35.57L113.741 36.49ZM117.401 34.93L119.231 34.15L118.839 33.23L117.009 34.01L117.401 34.93ZM121.061 33.37L122.891 32.59L122.499 31.67L120.669 32.45L121.061 33.37ZM124.721 31.81L126.551 31.03L126.159 30.11L124.329 30.89L124.721 31.81ZM128.381 30.25L130.211 29.4699L129.819 28.55L127.989 29.33L128.381 30.25ZM132.041 28.6899L133.871 27.9099L133.479 26.99L131.649 27.77L132.041 28.6899ZM135.701 27.1299L137.531 26.3499L137.139 25.43L135.309 26.21L135.701 27.1299ZM139.361 25.5699L141.191 24.7899L140.799 23.87L138.969 24.65L139.361 25.5699ZM143.021 24.0099L144.851 23.2299L144.459 22.31L142.629 23.09L143.021 24.0099ZM146.681 22.4499L148.511 21.6699L148.119 20.75L146.289 21.53L146.681 22.4499ZM150.341 20.8899L152.171 20.1099L151.779 19.19L149.949 19.97L150.341 20.8899ZM154.001 19.3299L155.831 18.5499L155.439 17.63L153.609 18.41L154.001 19.3299ZM157.661 17.7699L159.491 16.9899L159.099 16.07L157.269 16.85L157.661 17.7699ZM161.321 16.2099L163.151 15.4299L162.759 14.51L160.929 15.29L161.321 16.2099ZM164.981 14.6499L166.811 13.8699L166.419 12.95L164.589 13.73L164.981 14.6499ZM168.641 13.0899L170.471 12.3099L170.079 11.39L168.249 12.17L168.641 13.0899ZM172.301 11.5299L174.131 10.7499L173.739 9.82996L171.909 10.61L172.301 11.5299ZM175.961 9.96988L177.791 9.18987L177.399 8.26995L175.569 9.04995L175.961 9.96988ZM179.621 8.40987L181.451 7.62987L181.059 6.70994L179.229 7.48995L179.621 8.40987ZM183.281 6.84986L184.196 6.45996L183.804 5.54004L182.889 5.92994L183.281 6.84986ZM184.928 6.37323C185.134 5.86085 184.886 5.27839 184.373 5.07226L176.024 1.71321C175.511 1.50708 174.929 1.75534 174.723 2.26772C174.516 2.78009 174.765 3.36256 175.277 3.56869L182.699 6.55451L179.713 13.9764C179.507 14.4888 179.755 15.0713 180.268 15.2774C180.78 15.4835 181.363 15.2353 181.569 14.7229L184.928 6.37323ZM1.3921 84.9199L2.3071 84.5299L1.5229 82.6901L0.607902 83.0801L1.3921 84.9199ZM4.1371 83.7499L5.9671 82.9699L5.1829 81.1301L3.3529 81.9101L4.1371 83.7499ZM7.7971 82.1899L9.6271 81.4099L8.8429 79.5701L7.0129 80.3501L7.7971 82.1899ZM11.4571 80.6299L13.2871 79.8499L12.5029 78.0101L10.6729 78.7901L11.4571 80.6299ZM15.1171 79.0699L16.9471 78.2899L16.1629 76.4501L14.3329 77.2301L15.1171 79.0699ZM18.7771 77.5099L20.6071 76.7299L19.8229 74.8901L17.9929 75.6701L18.7771 77.5099ZM22.4371 75.9499L24.2671 75.1699L23.4829 73.3301L21.6529 74.1101L22.4371 75.9499ZM26.0971 74.3899L27.9271 73.6099L27.1429 71.7701L25.3129 72.5501L26.0971 74.3899ZM29.7571 72.8299L31.5871 72.0499L30.8029 70.2101L28.9729 70.9901L29.7571 72.8299ZM33.4171 71.2699L35.2471 70.4899L34.4629 68.6501L32.6329 69.4301L33.4171 71.2699ZM37.0771 69.7099L38.9071 68.9299L38.1229 67.0901L36.2929 67.8701L37.0771 69.7099ZM40.7371 68.1499L42.5671 67.3699L41.7829 65.5301L39.9529 66.3101L40.7371 68.1499ZM44.3971 66.5899L46.2271 65.8099L45.4429 63.9701L43.6129 64.7501L44.3971 66.5899ZM48.0571 65.0299L49.8871 64.2499L49.1029 62.4101L47.2729 63.1901L48.0571 65.0299ZM51.7171 63.4699L53.5471 62.6899L52.7629 60.8501L50.9329 61.6301L51.7171 63.4699ZM55.3771 61.9099L57.2071 61.1299L56.4229 59.2901L54.5929 60.0701L55.3771 61.9099ZM59.0371 60.3499L60.8671 59.5699L60.0829 57.7301L58.2529 58.5101L59.0371 60.3499ZM62.6971 58.7899L64.5271 58.0099L63.7429 56.1701L61.9129 56.9501L62.6971 58.7899ZM66.3571 57.2299L68.1871 56.4499L67.4029 54.6101L65.5729 55.3901L66.3571 57.2299ZM70.0171 55.6699L71.8471 54.8899L71.0629 53.0501L69.2329 53.8301L70.0171 55.6699ZM73.6771 54.1099L75.5071 53.3299L74.7229 51.4901L72.8929 52.2701L73.6771 54.1099ZM77.3371 52.5499L79.1671 51.7699L78.3829 49.9301L76.5529 50.7101L77.3371 52.5499ZM80.9971 50.9899L82.8271 50.2099L82.0429 48.3701L80.2129 49.1501L80.9971 50.9899ZM84.6571 49.4299L86.4871 48.6499L85.7029 46.8101L83.8729 47.5901L84.6571 49.4299ZM88.3171 47.8699L90.1471 47.0899L89.3629 45.2501L87.5329 46.0301L88.3171 47.8699ZM91.9771 46.3099L93.8071 45.5299L93.0229 43.6901L91.1929 44.4701L91.9771 46.3099ZM95.6371 44.7499L97.4671 43.9699L96.6829 42.1301L94.8529 42.9101L95.6371 44.7499ZM99.2971 43.1899L101.127 42.4099L100.343 40.5701L98.5129 41.3501L99.2971 43.1899ZM102.957 41.6299L104.787 40.8499L104.003 39.0101L102.173 39.7901L102.957 41.6299ZM106.617 40.0699L108.447 39.2899L107.663 37.4501L105.833 38.2301L106.617 40.0699ZM110.277 38.5099L112.107 37.7299L111.323 35.8901L109.493 36.6701L110.277 38.5099ZM113.937 36.9499L115.767 36.1699L114.983 34.3301L113.153 35.1101L113.937 36.9499ZM117.597 35.3899L119.427 34.6099L118.643 32.7701L116.813 33.5501L117.597 35.3899ZM121.257 33.8299L123.087 33.0499L122.303 31.2101L120.473 31.9901L121.257 33.8299ZM124.917 32.2699L126.747 31.4899L125.963 29.6501L124.133 30.4301L124.917 32.2699ZM128.577 30.7099L130.407 29.9299L129.623 28.0901L127.793 28.8701L128.577 30.7099ZM132.237 29.1499L134.067 28.3699L133.283 26.5301L131.453 27.3101L132.237 29.1499ZM135.897 27.5899L137.727 26.8099L136.943 24.9701L135.113 25.7501L135.897 27.5899ZM139.557 26.0299L141.387 25.2499L140.603 23.41L138.773 24.19L139.557 26.0299ZM143.217 24.4699L145.047 23.6899L144.263 21.85L142.433 22.63L143.217 24.4699ZM146.877 22.9099L148.707 22.1299L147.923 20.29L146.093 21.07L146.877 22.9099ZM150.537 21.3499L152.367 20.5699L151.583 18.73L149.753 19.51L150.537 21.3499ZM154.197 19.7899L156.027 19.0099L155.243 17.17L153.413 17.95L154.197 19.7899ZM157.857 18.2299L159.687 17.4499L158.903 15.61L157.073 16.39L157.857 18.2299ZM161.517 16.6699L163.347 15.8899L162.563 14.05L160.733 14.83L161.517 16.6699ZM165.177 15.1099L167.007 14.3299L166.223 12.49L164.393 13.27L165.177 15.1099ZM168.837 13.5498L170.667 12.7698L169.883 10.93L168.053 11.71L168.837 13.5498ZM172.497 11.9898L174.327 11.2098L173.543 9.36999L171.713 10.15L172.497 11.9898ZM176.157 10.4298L177.987 9.64984L177.203 7.80999L175.373 8.58999L176.157 10.4298ZM179.817 8.86983L181.647 8.08983L180.863 6.24998L179.033 7.02999L179.817 8.86983ZM183.477 7.30983L184.392 6.91992L183.608 5.08008L182.693 5.46998L183.477 7.30983Z" fill="white" fill-opacity="0.28"/>
</svg>
