<svg width="49" height="51" viewBox="0 0 49 51" fill="none" xmlns="http://www.w3.org/2000/svg">
<path d="M28.9741 50.0832H20.0258C19.4651 50.0833 18.9213 49.8917 18.4844 49.5403C18.0476 49.1888 17.744 48.6986 17.624 48.1509L16.6235 43.5194C15.2887 42.9346 14.0231 42.2033 12.8499 41.3389L8.33398 42.777C7.79945 42.9475 7.22269 42.93 6.69948 42.7274C6.17628 42.5248 5.73811 42.1494 5.45773 41.6634L0.97373 33.9172C0.696296 33.4308 0.592154 32.8646 0.678343 32.3113C0.764531 31.758 1.03595 31.2503 1.44819 30.8713L4.95131 27.6755C4.79201 26.2278 4.79201 24.767 4.95131 23.3193L1.44819 20.1308C1.03536 19.7517 0.763578 19.2436 0.677376 18.6897C0.591173 18.1359 0.695666 17.5692 0.97373 17.0825L5.4479 9.33138C5.72827 8.84541 6.16644 8.46996 6.68965 8.26738C7.21286 8.06481 7.78961 8.0473 8.32415 8.21775L12.8401 9.65588C13.4399 9.21338 14.0644 8.80038 14.7084 8.42671C15.3304 8.07763 15.9696 7.7605 16.6235 7.4778L17.6265 2.85121C17.7459 2.30349 18.0489 1.81303 18.4853 1.46114C18.9217 1.10926 19.4652 0.917094 20.0258 0.916504H28.9741C29.5347 0.917094 30.0783 1.10926 30.5147 1.46114C30.9511 1.81303 31.2541 2.30349 31.3735 2.85121L32.3863 7.48025C33.7193 8.06845 34.9846 8.79958 36.1599 9.6608L40.6783 8.22267C41.2125 8.05284 41.7887 8.07067 42.3113 8.27322C42.834 8.47576 43.2718 8.85085 43.5521 9.3363L48.0262 17.0874C48.5966 18.088 48.3999 19.354 47.5518 20.1333L44.0486 23.3291C44.208 24.7768 44.208 26.2376 44.0486 27.6853L47.5518 30.8811C48.3999 31.6629 48.5966 32.9265 48.0262 33.927L43.5521 41.6781C43.2717 42.1641 42.8335 42.5396 42.3103 42.7421C41.7871 42.9447 41.2103 42.9622 40.6758 42.7918L36.1599 41.3536C34.9876 42.2174 33.7227 42.9479 32.3888 43.5317L31.3735 48.1509C31.2536 48.6982 30.9504 49.1881 30.514 49.5395C30.0777 49.8909 29.5344 50.0827 28.9741 50.0832ZM24.4901 15.6665C21.8822 15.6665 19.381 16.7025 17.5369 18.5466C15.6928 20.3907 14.6568 22.8919 14.6568 25.4998C14.6568 28.1078 15.6928 30.6089 17.5369 32.4531C19.381 34.2972 21.8822 35.3332 24.4901 35.3332C27.0981 35.3332 29.5993 34.2972 31.4434 32.4531C33.2875 30.6089 34.3235 28.1078 34.3235 25.4998C34.3235 22.8919 33.2875 20.3907 31.4434 18.5466C29.5993 16.7025 27.0981 15.6665 24.4901 15.6665Z" fill="#DDDFE4"/>
</svg>
