<svg width="64" height="64" viewBox="0 0 64 64" fill="none" xmlns="http://www.w3.org/2000/svg">
<path d="M31.9999 58.6668C41.9173 58.6668 50.8346 53.2402 55.4906 44.4962L34.6666 32.0002L55.4906 19.5042C50.8346 10.7602 41.9173 5.3335 31.9999 5.3335C17.2959 5.3335 5.33325 17.2962 5.33325 32.0002C5.33325 46.7042 17.2959 58.6668 31.9999 58.6668ZM30.6666 16.0002C31.7278 16.0005 32.7454 16.4224 33.4956 17.1731C34.2457 17.9237 34.6669 18.9416 34.6666 20.0028C34.6662 21.064 34.2443 22.0817 33.4937 22.8318C32.743 23.582 31.7251 24.0032 30.6639 24.0028C29.6027 24.0025 28.5851 23.5806 27.8349 22.8299C27.0848 22.0793 26.6636 21.0614 26.6639 20.0002C26.6643 18.9389 27.0862 17.9213 27.8368 17.1712C28.5875 16.421 29.6054 15.9998 30.6666 16.0002V16.0002Z" fill="#DDDFE4"/>
</svg>
