<svg width="64" height="64" viewBox="0 0 64 64" fill="none" xmlns="http://www.w3.org/2000/svg">
<path d="M57.2533 11.6L53.6799 10.1067V34.1867L60.1599 18.56C61.2533 15.84 59.9999 12.72 57.2533 11.6V11.6ZM5.25327 21.4667L18.4799 53.3333C18.8694 54.3029 19.5338 55.1375 20.3913 55.7344C21.2488 56.3314 22.2621 56.6647 23.3066 56.6933C23.9999 56.6933 24.7199 56.56 25.4133 56.2667L45.0666 48.1333C47.0666 47.3067 48.2933 45.3333 48.3466 43.36C48.3733 42.6667 48.2399 41.8933 47.9999 41.2L34.6666 9.33333C34.2897 8.35739 33.6277 7.5175 32.7669 6.92298C31.906 6.32846 30.8861 6.00685 29.8399 6C29.1466 6 28.4533 6.16 27.7866 6.4L8.15993 14.5333C6.8553 15.0676 5.81623 16.0981 5.27117 17.3982C4.7261 18.6984 4.71966 20.1618 5.25327 21.4667V21.4667ZM48.3199 11.3333C48.3199 9.91885 47.758 8.56229 46.7578 7.5621C45.7576 6.5619 44.4011 6 42.9866 6H39.1199L48.3199 28.24" fill="white"/>
</svg>
