<svg width="53" height="53" viewBox="0 0 53 53" fill="none" xmlns="http://www.w3.org/2000/svg">
<path d="M36.4375 19.875C36.4375 22.5106 35.3905 25.0382 33.5269 26.9019C31.6632 28.7655 29.1356 29.8125 26.5 29.8125C23.8644 29.8125 21.3368 28.7655 19.4731 26.9019C17.6095 25.0382 16.5625 22.5106 16.5625 19.875C16.5625 17.2394 17.6095 14.7118 19.4731 12.8481C21.3368 10.9845 23.8644 9.9375 26.5 9.9375C29.1356 9.9375 31.6632 10.9845 33.5269 12.8481C35.3905 14.7118 36.4375 17.2394 36.4375 19.875Z" fill="white"/>
<path fill-rule="evenodd" clip-rule="evenodd" d="M0 26.5C0 19.4718 2.79196 12.7314 7.76167 7.76167C12.7314 2.79196 19.4718 0 26.5 0C33.5282 0 40.2686 2.79196 45.2383 7.76167C50.208 12.7314 53 19.4718 53 26.5C53 33.5282 50.208 40.2686 45.2383 45.2383C40.2686 50.208 33.5282 53 26.5 53C19.4718 53 12.7314 50.208 7.76167 45.2383C2.79196 40.2686 0 33.5282 0 26.5ZM26.5 3.3125C22.1334 3.31273 17.8556 4.54595 14.159 6.87022C10.4623 9.19448 7.49712 12.5153 5.60463 16.4505C3.71214 20.3857 2.96928 24.7753 3.46156 29.1141C3.95383 33.4529 5.66124 37.5644 8.38725 40.9756C10.7391 37.1861 15.9166 33.125 26.5 33.125C37.0834 33.125 42.2576 37.1828 44.6128 40.9756C47.3388 37.5644 49.0462 33.4529 49.5384 29.1141C50.0307 24.7753 49.2879 20.3857 47.3954 16.4505C45.5029 12.5153 42.5377 9.19448 38.841 6.87022C35.1444 4.54595 30.8666 3.31273 26.5 3.3125Z" fill="white"/>
</svg>
