<svg width="40" height="36" viewBox="0 0 40 36" fill="none" xmlns="http://www.w3.org/2000/svg">
<path d="M39.9861 17.9648C39.9861 19.2305 38.9444 20.2219 37.7639 20.2219H35.5417L35.5903 31.4789C35.5903 31.6758 35.5764 31.8586 35.5556 32.0484V33.1875C35.5556 34.7414 34.3125 36 32.7778 36H31.6667C31.5903 36 31.5139 35.9367 31.4375 35.993C31.3403 35.9367 31.2431 36 31.1458 36H27.2222C25.6875 36 24.4444 34.7414 24.4444 33.1875V27C24.4444 25.7555 23.4514 24.75 22.2222 24.75H17.7778C16.5486 24.75 15.5556 25.7555 15.5556 27V33.1875C15.5556 34.7414 14.3125 36 12.7778 36H8.89583C8.79167 36 8.6875 35.993 8.58333 35.9859C8.5 35.993 8.41667 36 8.33333 36H7.22222C5.68819 36 4.44444 34.7414 4.44444 33.1875V25.3125C4.44444 25.2492 4.44653 25.1789 4.45069 25.1156V20.2219H2.22569C0.973611 20.2219 0 19.2305 0 17.9648C0 17.332 0.208611 16.7695 0.695139 16.2773L18.5 0.563625C18.9861 0.0704531 19.5417 0 20.0278 0C20.5139 0 21.0694 0.140906 21.4931 0.493172L39.2222 16.2773C39.7778 16.7695 40.0625 17.332 39.9861 17.9648Z" fill="white"/>
</svg>
