<svg width="20" height="20" viewBox="0 0 20 20" fill="none" xmlns="http://www.w3.org/2000/svg">
<path d="M2.977 14.977C3.44535 14.5284 3.9012 14.0669 4.344 13.593C4.716 13.215 4.94 12.94 4.94 12.94L7.74 11.603C6.61901 10.3316 6.00033 8.69499 6 7C6 3.141 9.14 0 13 0C16.86 0 20 3.141 20 7C20 10.859 16.86 14 13 14C11.237 14 9.63 13.34 8.397 12.261L7.06 15.061C7.06 15.061 6.785 15.285 6.407 15.657C6.02 16.02 5.511 16.511 5.023 17.024L3.665 18.416L3.061 19.062L0.940001 16.941L1.586 16.337C1.965 15.965 2.471 15.471 2.977 14.977ZM13 12C15.757 12 18 9.757 18 7C18 4.243 15.757 2 13 2C10.243 2 8 4.243 8 7C8 9.757 10.243 12 13 12Z" fill="#06062F"/>
</svg>
