<svg width="29" height="29" viewBox="0 0 29 29" fill="none" xmlns="http://www.w3.org/2000/svg">
<path d="M5.89062 16.3125H1.35938C0.608604 16.3125 0 15.7039 0 14.9531V1.35938C0 0.608604 0.608604 0 1.35938 0H5.89062C6.6414 0 7.25 0.608604 7.25 1.35938V14.9531C7.25 15.7039 6.6414 16.3125 5.89062 16.3125ZM3.625 2.26562C2.87423 2.26562 2.26562 2.87423 2.26562 3.625C2.26562 4.37577 2.87423 4.98438 3.625 4.98438C4.37577 4.98438 4.98438 4.37577 4.98438 3.625C4.98438 2.87423 4.37577 2.26562 3.625 2.26562ZM21.75 24.3865C21.75 21.984 20.279 20.6364 19.8652 19.0312H25.6268C27.5185 19.0312 28.9911 17.4597 28.9999 15.7405C29.0047 14.7245 28.5725 13.6307 27.8989 12.954L27.8927 12.9478C28.4498 11.6259 28.3592 9.77379 27.3655 8.44659C27.8572 6.97988 27.3616 5.1782 26.4376 4.21231C26.681 3.21554 26.5647 2.36724 26.0894 1.68432C24.9333 0.0233926 22.0681 0 19.6452 0L19.484 5.70416e-05C16.749 0.00101993 14.5106 0.996819 12.7121 1.79698C11.8083 2.19907 10.6265 2.69683 9.7299 2.71331C9.35947 2.72011 9.0625 3.0224 9.0625 3.39289V15.501C9.0625 15.6822 9.13511 15.8561 9.26403 15.9836C11.5078 18.2007 12.4726 20.5481 14.3117 22.3903C15.1502 23.2304 15.4551 24.4993 15.7499 25.7265C16.0018 26.7744 16.5287 29 17.6719 29C19.0312 29 21.75 28.5469 21.75 24.3865Z" fill="#3A3A6A"/>
</svg>
