<svg width="29" height="29" viewBox="0 0 29 29" fill="none" xmlns="http://www.w3.org/2000/svg">
<path d="M5.89062 12.6875H1.35938C0.608604 12.6875 0 13.2961 0 14.0469V27.6406C0 28.3914 0.608604 29 1.35938 29H5.89062C6.6414 29 7.25 28.3914 7.25 27.6406V14.0469C7.25 13.2961 6.6414 12.6875 5.89062 12.6875ZM3.625 26.7344C2.87423 26.7344 2.26562 26.1258 2.26562 25.375C2.26562 24.6242 2.87423 24.0156 3.625 24.0156C4.37577 24.0156 4.98438 24.6242 4.98438 25.375C4.98438 26.1258 4.37577 26.7344 3.625 26.7344ZM21.75 4.61349C21.75 7.01596 20.279 8.36355 19.8652 9.96875H25.6268C27.5185 9.96875 28.9911 11.5403 28.9999 13.2595C29.0047 14.2755 28.5725 15.3693 27.8989 16.046L27.8927 16.0522C28.4498 17.3741 28.3592 19.2262 27.3655 20.5534C27.8572 22.0201 27.3616 23.8218 26.4376 24.7877C26.681 25.7845 26.5647 26.6328 26.0894 27.3157C24.9333 28.9766 22.0681 29 19.6452 29L19.484 28.9999C16.749 28.999 14.5106 28.0032 12.7121 27.203C11.8083 26.8009 10.6265 26.3032 9.7299 26.2867C9.35947 26.2799 9.0625 25.9776 9.0625 25.6071V13.499C9.0625 13.3178 9.13511 13.1439 9.26403 13.0164C11.5078 10.7993 12.4726 8.45191 14.3117 6.60973C15.1502 5.76964 15.4551 4.50066 15.7499 3.27349C16.0018 2.22558 16.5287 0 17.6719 0C19.0312 0 21.75 0.453125 21.75 4.61349Z" fill="#3A3A6A"/>
</svg>
